<svg width="28" height="28" viewBox="0 0 28 28" fill="none" xmlns="http://www.w3.org/2000/svg">
<g clip-path="url(#clip0_231_408)">
<path d="M10.6679 25.5327C11.3061 25.5327 11.8235 25.0154 11.8235 24.3772C11.8235 23.739 11.3061 23.2216 10.6679 23.2216C10.0297 23.2216 9.51237 23.739 9.51237 24.3772C9.51237 25.0154 10.0297 25.5327 10.6679 25.5327Z" stroke="#14213D" stroke-width="2" stroke-linecap="round" stroke-linejoin="round"/>
<path d="M23.3789 25.5327C24.017 25.5327 24.5344 25.0154 24.5344 24.3772C24.5344 23.739 24.017 23.2216 23.3789 23.2216C22.7407 23.2216 22.2233 23.739 22.2233 24.3772C22.2233 25.0154 22.7407 25.5327 23.3789 25.5327Z" stroke="#14213D" stroke-width="2" stroke-linecap="round" stroke-linejoin="round"/>
<path d="M1.42361 1.26637H6.04577L9.14262 16.739C9.24829 17.2711 9.53771 17.7489 9.96021 18.0891C10.3827 18.4292 10.9114 18.6099 11.4537 18.5995H22.6855C23.2278 18.6099 23.7565 18.4292 24.179 18.0891C24.6015 17.7489 24.8909 17.2711 24.9966 16.739L26.8455 7.04407H7.20131" stroke="#14213D" stroke-width="2" stroke-linecap="round" stroke-linejoin="round"/>
</g>
<defs>
<clipPath id="clip0_231_408">
<rect width="27.7329" height="27.7329" fill="white" transform="translate(0.268066 0.11084)"/>
</clipPath>
</defs>
</svg>
