<svg width="28" height="28" viewBox="0 0 28 28" fill="none" xmlns="http://www.w3.org/2000/svg">
<g clip-path="url(#clip0_230_134)">
<path d="M10.6677 25.5327C11.3059 25.5327 11.8233 25.0154 11.8233 24.3772C11.8233 23.739 11.3059 23.2216 10.6677 23.2216C10.0296 23.2216 9.51221 23.739 9.51221 24.3772C9.51221 25.0154 10.0296 25.5327 10.6677 25.5327Z" stroke="#14213D" stroke-width="2" stroke-linecap="round" stroke-linejoin="round"/>
<path d="M23.3787 25.5327C24.0169 25.5327 24.5342 25.0154 24.5342 24.3772C24.5342 23.739 24.0169 23.2216 23.3787 23.2216C22.7405 23.2216 22.2231 23.739 22.2231 24.3772C22.2231 25.0154 22.7405 25.5327 23.3787 25.5327Z" stroke="#14213D" stroke-width="2" stroke-linecap="round" stroke-linejoin="round"/>
<path d="M1.42383 1.26637H6.04599L9.14283 16.739C9.2485 17.2711 9.53792 17.7489 9.96043 18.0891C10.3829 18.4292 10.9116 18.6099 11.4539 18.5995H22.6858C23.2281 18.6099 23.7567 18.4292 24.1792 18.0891C24.6017 17.7489 24.8912 17.2711 24.9968 16.739L26.8457 7.04407H7.20153" stroke="#14213D" stroke-width="2" stroke-linecap="round" stroke-linejoin="round"/>
</g>
<defs>
<clipPath id="clip0_230_134">
<rect width="27.7329" height="27.7329" fill="white" transform="translate(0.268066 0.11084)"/>
</clipPath>
</defs>
</svg>
