<svg width="37" height="33" viewBox="0 0 37 33" fill="none" xmlns="http://www.w3.org/2000/svg">
<path d="M11.6398 32.4202C25.5987 32.4202 33.2357 20.201 33.2357 9.60783C33.2357 9.26431 33.2285 8.91317 33.214 8.56965C34.6996 7.43475 35.9817 6.029 37 4.41848C35.6164 5.06875 34.1474 5.49343 32.6431 5.67803C34.227 4.67515 35.4129 3.09967 35.9811 1.24365C34.491 2.17644 32.8615 2.83445 31.1624 3.18946C30.0175 1.90449 28.5039 1.05368 26.8553 0.768586C25.2068 0.483491 23.5153 0.779985 22.0424 1.61223C20.5694 2.44447 19.3969 3.76611 18.7063 5.37281C18.0158 6.97951 17.8455 8.78177 18.2218 10.501C15.2047 10.341 12.2531 9.51312 9.5583 8.0709C6.86354 6.62868 4.48578 4.60436 2.57916 2.12915C1.61012 3.89401 1.31359 5.98241 1.74984 7.96992C2.18609 9.95743 3.32239 11.6949 4.92779 12.8292C3.72255 12.7888 2.54371 12.446 1.48867 11.8292V11.9285C1.48759 13.7805 2.09373 15.5759 3.20406 17.0093C4.31439 18.4426 5.86037 19.4256 7.57922 19.7911C6.46275 20.1138 5.29097 20.1608 4.15455 19.9285C4.63958 21.5213 5.58326 22.9144 6.8539 23.9134C8.12453 24.9124 9.65873 25.4675 11.2424 25.5011C8.55382 27.7319 5.23269 28.9419 1.81387 28.9362C1.20757 28.9352 0.601865 28.896 0 28.8186C3.47315 31.1724 7.51336 32.4225 11.6398 32.4202Z" fill="#14213D"/>
</svg>
